<svg width="23" height="23" viewBox="0 0 23 23" fill="none" xmlns="http://www.w3.org/2000/svg">
<path d="M14.4683 8.41547C16.2033 8.41547 17.8673 9.1047 19.0941 10.3315C20.3209 11.5584 21.0101 13.2223 21.0101 14.9573C21.0143 16.2451 20.6336 17.5047 19.9173 18.5746L21.0101 21.4992L17.3313 20.8373C16.4465 21.2688 15.4759 21.495 14.4916 21.4992C13.5073 21.5034 12.5347 21.2852 11.6463 20.8613C10.758 20.4374 9.97676 19.8183 9.36087 19.0505C8.74498 18.2828 8.31029 17.3858 8.08922 16.4266C7.86815 15.4674 7.86636 14.4707 8.08403 13.5108C8.3017 12.5508 8.73318 11.6523 9.34633 10.8823C9.95948 10.1123 10.7385 9.49054 11.6253 9.06342C12.5122 8.63631 13.484 8.41482 14.4683 8.41547Z" stroke="white" stroke-width="2" stroke-linecap="round" stroke-linejoin="round"/>
<path d="M15.4074 4.58275C14.3709 3.26371 12.9488 2.30071 11.3392 1.82784C9.72959 1.35497 8.01261 1.39576 6.42729 1.94452C4.84197 2.49329 3.46722 3.52272 2.49443 4.88949C1.52164 6.25625 0.999233 7.89235 0.999944 9.56996C0.995174 11.1646 1.46685 12.7244 2.35449 14.0492L0.999944 17.651L4.26318 17.0661" stroke="white" stroke-width="2" stroke-linecap="round" stroke-linejoin="round"/>
</svg>
