<svg width="23" height="22" viewBox="0 0 23 22" fill="none" xmlns="http://www.w3.org/2000/svg">
<path d="M14.4685 7.91467C16.2036 7.91467 17.8675 8.60391 19.0943 9.83075C20.3211 11.0576 21.0104 12.7215 21.0104 14.4565C21.0145 15.7443 20.6339 17.0039 19.9175 18.0738L21.0104 20.9984L17.3316 20.3365C16.4468 20.768 15.4761 20.9943 14.4918 20.9984C13.5075 21.0026 12.5349 20.7845 11.6466 20.3605C10.7582 19.9366 9.977 19.3175 9.36111 18.5497C8.74522 17.782 8.31053 16.885 8.08946 15.9258C7.86839 14.9666 7.86661 13.9699 8.08428 13.01C8.30194 12.05 8.73343 11.1515 9.34658 10.3815C9.95973 9.61147 10.7387 8.98974 11.6256 8.56263C12.5124 8.13551 13.4842 7.91403 14.4685 7.91467Z" stroke="#02112D" stroke-width="2" stroke-linecap="round" stroke-linejoin="round"/>
<path d="M15.4077 4.08195C14.3711 2.76291 12.949 1.79992 11.3394 1.32705C9.72984 0.854177 8.01285 0.894964 6.42753 1.44373C4.84221 1.9925 3.46747 3.02193 2.49467 4.3887C1.52188 5.75546 0.999477 7.39156 1.00019 9.06917C0.995418 10.6638 1.4671 12.2236 2.35474 13.5484L1.00019 17.1502L4.26342 16.5653" stroke="#02112D" stroke-width="2" stroke-linecap="round" stroke-linejoin="round"/>
</svg>
