<svg width="14" height="14" viewBox="0 0 14 14" fill="none" xmlns="http://www.w3.org/2000/svg">
<g clip-path="url(#clip0_2213_2191)">
<path d="M10.333 3.64404C10.1949 3.64404 10.083 3.53211 10.083 3.39404C10.083 3.25597 10.1949 3.14404 10.333 3.14404" stroke="#02112D" stroke-linecap="round" stroke-linejoin="round"/>
<path d="M10.333 3.64404C10.4711 3.64404 10.583 3.53211 10.583 3.39404C10.583 3.25597 10.4711 3.14404 10.333 3.14404" stroke="#02112D" stroke-linecap="round" stroke-linejoin="round"/>
<path d="M0.858398 3.43141C0.858398 2.01038 2.01037 0.858398 3.43141 0.858398H10.2928C11.7138 0.858398 12.8658 2.01038 12.8658 3.43141V10.2928C12.8658 11.7138 11.7138 12.8658 10.2928 12.8658H3.43141C2.01037 12.8658 0.858398 11.7138 0.858398 10.2928V3.43141Z" stroke="#02112D" stroke-linecap="round" stroke-linejoin="round"/>
<path d="M6.8625 9.41201C8.27083 9.41201 9.4125 8.27034 9.4125 6.86201C9.4125 5.45369 8.27083 4.31201 6.8625 4.31201C5.45417 4.31201 4.3125 5.45369 4.3125 6.86201C4.3125 8.27034 5.45417 9.41201 6.8625 9.41201Z" stroke="#02112D" stroke-linecap="round" stroke-linejoin="round"/>
</g>
<defs>
<clipPath id="clip0_2213_2191">
<rect width="14" height="14" fill="white"/>
</clipPath>
</defs>
</svg>
