<svg width="13" height="13" viewBox="0 0 13 13" fill="none" xmlns="http://www.w3.org/2000/svg">
<g clip-path="url(#clip0_304_674)">
<path d="M12.3725 0H8.49975C8.15304 0 7.87221 0.284188 7.87221 0.634294C7.87221 0.9844 8.15304 1.26859 8.49975 1.26859H10.4136L7.29724 4.41853C6.92957 4.79016 6.92957 5.39251 7.29724 5.76447C7.48091 5.95012 7.72181 6.04294 7.96271 6.04294C8.20361 6.04294 8.44451 5.95012 8.62818 5.76447L11.7443 2.61487V4.54902C11.7443 4.89913 12.0251 5.18332 12.3718 5.18332C12.7185 5.18332 12.9993 4.89913 12.9993 4.54902V0.634294C12.9993 0.284188 12.7185 0 12.3718 0H12.3725Z" fill="white"/>
<path d="M11.0352 6.81909C10.6675 6.81909 10.3697 7.1201 10.3697 7.49173V10.9894C10.3697 11.3563 10.0746 11.6547 9.71157 11.6547H1.9891C1.62608 11.6547 1.33094 11.356 1.33094 10.9894V3.18384C1.33094 2.81692 1.62608 2.51861 1.9891 2.51861H5.18336C5.55104 2.51861 5.84883 2.2176 5.84883 1.84597C5.84883 1.47434 5.55104 1.17334 5.18336 1.17334H1.9891C0.892398 1.17334 0 2.07534 0 3.18384V10.9894C0 12.0979 0.892398 12.9999 1.9891 12.9999H9.71157C10.8083 12.9999 11.7007 12.0979 11.7007 10.9894V7.49173C11.7007 7.1201 11.4029 6.81909 11.0352 6.81909Z" fill="white"/>
</g>
<defs>
<clipPath id="clip0_304_674">
<rect width="13" height="13" fill="white"/>
</clipPath>
</defs>
</svg>
