<svg width="18" height="18" viewBox="0 0 18 18" fill="none" xmlns="http://www.w3.org/2000/svg">
<g clip-path="url(#clip0_304_697)">
<path d="M0.642853 16.0716V1.92878C0.642853 1.58778 0.778312 1.26076 1.01943 1.01964C1.26055 0.778525 1.58757 0.643066 1.92857 0.643066H16.0714C16.4124 0.643066 16.7395 0.778525 16.9806 1.01964C17.2216 1.26076 17.3571 1.58778 17.3571 1.92878V16.0716C17.3571 16.4126 17.2216 16.7397 16.9806 16.9808C16.7395 17.2218 16.4124 17.3574 16.0714 17.3574H12.2143V11.2631H13.1271C13.3352 11.2631 13.5346 11.1804 13.6817 11.0334C13.8288 10.8863 13.9114 10.6868 13.9114 10.4788V9.48878C13.9114 9.38578 13.8911 9.2838 13.8518 9.18864C13.8123 9.09349 13.7546 9.00704 13.6817 8.9342C13.6089 8.86138 13.5224 8.80361 13.4272 8.76419C13.3321 8.72478 13.2301 8.7045 13.1271 8.7045H12.2657V7.49592C12.2657 6.41592 12.7543 6.41592 13.2429 6.41592H13.8729C13.9764 6.42019 14.0795 6.40167 14.175 6.36168C14.2705 6.32169 14.3562 6.2612 14.4257 6.1845C14.5004 6.11337 14.5596 6.0275 14.5994 5.93234C14.6393 5.83717 14.6589 5.73479 14.6571 5.63164V4.68021C14.6606 4.57551 14.6434 4.47117 14.6064 4.37314C14.5695 4.27511 14.5137 4.18531 14.4419 4.10889C14.3703 4.03248 14.2843 3.97092 14.1889 3.92776C14.0935 3.8846 13.9904 3.86067 13.8857 3.85735H12.4071C11.9757 3.84113 11.5459 3.91876 11.1474 4.08487C10.7489 4.25097 10.3912 4.50161 10.0991 4.81945C9.80688 5.13731 9.5872 5.51478 9.45515 5.92582C9.32311 6.33687 9.28188 6.77167 9.33428 7.20021V8.7045H8.51142C8.40736 8.70279 8.30399 8.72181 8.20734 8.76046C8.11069 8.79911 8.02271 8.85661 7.94853 8.92961C7.87433 9.00261 7.8154 9.08964 7.77519 9.18565C7.73497 9.28165 7.71427 9.3847 7.71428 9.48878V10.4788C7.71427 10.5829 7.73497 10.6859 7.77519 10.7819C7.8154 10.8779 7.87433 10.9649 7.94853 11.038C8.02271 11.111 8.11069 11.1685 8.20734 11.2071C8.30399 11.2457 8.40736 11.2648 8.51142 11.2631H9.33428V17.3574H1.92857C1.58757 17.3574 1.26055 17.2218 1.01943 16.9808C0.778312 16.7397 0.642853 16.4126 0.642853 16.0716Z" stroke="white" stroke-linecap="round" stroke-linejoin="round"/>
</g>
<defs>
<clipPath id="clip0_304_697">
<rect width="18" height="18" fill="white"/>
</clipPath>
</defs>
</svg>
