<svg width="18" height="18" viewBox="0 0 18 18" fill="none" xmlns="http://www.w3.org/2000/svg">
<path d="M0.5 0.610352C3.9414 0.595394 8.36313 0.440299 11.6104 0.525391C13.8377 0.582985 15.2433 1.09992 16.1182 2.08887C17.005 3.09154 17.446 4.68665 17.4746 7.1377V7.14258C17.5035 8.54192 17.5034 11.2524 17.4961 13.6191C17.4925 14.8011 17.487 15.8956 17.4824 16.6943C17.4806 17.0149 17.4789 17.2881 17.4775 17.5H13.5273C13.5287 10.9038 13.5552 9.73325 13.5264 7.5625L13.5254 7.55371C13.4955 6.54972 13.3394 5.71295 12.9297 5.09473C12.4976 4.44276 11.8374 4.11031 10.9893 4.00879L10.9863 4.00781L10.6465 3.97656C9.78494 3.91321 8.47383 3.90999 7.34375 3.92285C6.69155 3.93028 6.08887 3.94394 5.64941 3.95508C5.42971 3.96065 5.25026 3.96503 5.12598 3.96875C5.06394 3.97061 5.01539 3.97258 4.98242 3.97363C4.96593 3.97416 4.95287 3.97433 4.94434 3.97461C4.9402 3.97474 4.93672 3.97551 4.93457 3.97559H4.93164L4.44824 3.99121V17.5H0.5V0.610352Z" stroke="white"/>
</svg>
