<svg width="102" height="69" viewBox="0 0 102 69" fill="none" xmlns="http://www.w3.org/2000/svg">
<g clip-path="url(#clip0_304_570)">
<path d="M96.3759 17.9693L101.378 11.2844C102 10.4289 102 10.2737 102 10.2207C102 9.81184 101.549 9.81184 101.151 9.81184C99.5934 9.81184 99.0288 10.2434 96.8231 13.1089L93.0673 17.9428H92.4988C92.3131 17.9428 92.0592 17.9542 91.7333 17.9656C91.161 17.9883 90.3727 18.0186 89.3457 18.0186C88.2239 18.0186 87.6365 18.0791 87.0149 18.1397C86.6625 18.1738 86.2987 18.2116 85.8173 18.2381H85.7264L84.8661 19.4229H91.9796C89.2623 23.1705 88.2163 24.4196 87.2461 25.5288C87.0415 25.6915 86.8179 25.8997 86.5791 26.1155C86.3745 26.301 86.1584 26.5016 85.9159 26.7098C85.4952 27.1035 85.2034 27.3987 84.9457 27.6599C84.9154 27.6902 84.8888 27.7167 84.8585 27.747C84.381 28.1937 83.9489 28.5836 83.5548 28.9205L83.4297 29.0189C81.9858 30.2302 80.936 30.7867 79.2533 31.3355C79.9544 30.2529 80.2235 29.3293 80.2235 28.0915C80.2235 26.8536 79.9696 25.877 79.314 24.4159C80.3562 23.6209 81.5424 22.5383 81.5424 21.7207C81.5424 20.8008 80.6821 20.8008 80.4016 20.8008C78.4802 20.8008 77.3925 21.8645 77.0704 24.0487C75.8993 25.1502 74.6145 26.248 73.254 27.3117L73.2426 27.2965L73.091 27.4404L72.9546 27.5464L72.9622 27.5577C71.6623 28.7804 70.3358 29.8365 69.0927 30.658C68.3423 30.8207 67.7814 31.1576 67.5048 31.6005C66.3792 32.1873 65.3825 32.5204 64.6397 32.5204C63.6278 32.5204 63.2147 32.1494 63.2147 31.2447C63.2147 31.0327 63.2715 30.8813 63.3322 30.7072C63.3587 30.639 63.3814 30.5709 63.4042 30.499C70.2107 27.1338 71.4993 26.1761 71.4993 24.5067C71.4993 23.92 71.1847 23.2197 69.6953 23.2197C67.3684 23.2197 63.8931 24.9837 61.7821 27.236C61.7632 27.2587 61.748 27.2776 61.7291 27.2965L61.5737 27.4442C58.7502 30.1924 55.0476 32.5166 53.4937 32.5166C53.3194 32.5166 53.0238 32.4749 53.0238 32.1948C53.0276 31.8201 54.7368 29.5034 55.6577 28.2618C56.0784 27.694 56.4384 27.2019 56.6582 26.8877C57.2078 26.1004 57.7194 25.2941 57.7194 24.73C57.7194 23.7534 57.0562 23.1478 55.9912 23.1478C55.6198 23.1478 54.9718 23.2197 54.9642 23.2197C54.877 23.2197 54.8619 23.1894 54.8619 23.1175C54.8619 23.0531 54.9111 22.985 54.9983 22.8676C55.0665 22.7768 55.1423 22.6746 55.2105 22.5421C55.3242 22.3188 55.3773 22.05 55.3773 21.7244C55.3773 20.9977 54.8315 20.5093 54.0129 20.5093C52.7244 20.5093 51.5495 21.7169 51.5495 23.0418C51.5495 23.549 51.6897 23.9238 51.9778 24.1736C50.981 25.3433 50.1018 26.1003 48.692 27.3041L48.6844 27.2927L48.529 27.4404L48.404 27.5502V27.5577C46.5659 29.3179 45.8344 29.8062 45.0689 29.8062C44.5269 29.8062 44.0835 29.3974 44.0835 28.8977C44.0835 28.6252 44.1555 28.3867 44.22 28.2315L44.4284 27.6675C44.7581 26.7893 44.8188 26.6303 44.8188 26.0398C44.8188 24.2228 43.678 23.1402 41.7717 23.1402C40.1838 23.1402 37.7242 24.1849 35.6473 25.7407C34.9083 26.2783 34.2489 26.8688 33.6804 27.4782C31.6869 29.2536 30.9024 29.8782 30.0383 29.8782C29.2652 29.8782 28.6134 29.1589 28.6134 28.311C28.6134 27.4631 29.4699 26.1079 30.4628 24.5446C31.0995 23.5414 31.8196 22.4058 32.4638 21.1794L43.7311 10.8755C48.3623 6.61319 50.6096 3.69087 50.6096 1.94959C50.6096 0.783696 49.9161 0.00390625 48.8815 0.00390625C44.4095 0.00390625 31.2587 18.5712 31.1298 18.7605L28.0487 23.2007C27.9198 23.178 27.7303 23.1478 27.6204 23.1478C26.3849 23.1478 25.5246 24.2114 25.5246 25.1691C25.5246 25.3698 25.5246 25.6347 25.5815 25.9149C25.3238 26.1723 25.1002 26.3994 24.8955 26.6076C24.1034 27.4101 23.5804 27.9401 22.4397 28.9091L22.2957 29.0302L22.8869 29.7381L24.0845 29.0227L10.3728 48.2676C3.36918 58.0793 0 62.9511 0 66.4677C0 67.9364 0.943672 69.0001 2.24359 69.0001C5.1504 69.0001 7.61381 66.2709 12.3776 57.7727C16.6071 50.4517 18.5362 47.1092 24.922 33.1525L25.6421 31.6346L27.0216 29.4693C27.8478 30.7185 28.6892 31.2106 29.955 31.2106C30.55 31.2106 31.0768 31.0971 31.6756 30.7904C31.5808 31.1463 31.5278 31.4945 31.5278 31.8276C31.5278 33.5538 32.5586 34.5077 34.4308 34.5077C37.186 34.5077 40.6044 32.3122 42.6964 30.2113C43.2725 30.9267 43.8902 31.2106 44.8415 31.2106C46.2172 31.2106 46.9979 30.6731 49.3628 28.5306C50.5452 27.5577 51.883 26.4562 53.2208 24.6922C53.5923 24.6922 53.9523 24.6657 54.2479 24.6468C54.4525 24.6316 54.6269 24.6203 54.7406 24.6203C54.8656 24.6203 54.9187 24.6203 54.9187 24.8701C54.9187 25.1351 54.426 25.7105 53.2133 26.8612C50.4656 29.6056 49.4916 30.8434 49.4916 32.3425C49.4916 33.5878 50.3519 34.3638 51.7352 34.3638C53.903 34.3638 56.6052 32.7626 59.8228 30.4498C59.6863 30.9154 59.6105 31.3734 59.6105 31.8314C59.6105 32.986 60.1639 34.3638 62.8054 34.3638C64.2796 34.3638 65.9282 33.7885 67.5162 32.9784C68.0846 33.868 69.7976 34.3638 72.4089 34.3638C74.0461 34.3638 75.4938 34.1367 77.2371 33.039C80.3183 32.7323 82.2549 31.6724 83.8466 30.427C83.3464 31.2863 83.2175 31.7481 83.2175 32.3425C83.2175 33.7014 84.0247 34.3638 85.6809 34.3638C88.5385 34.3638 94.0413 30.1545 95.9211 28.5306L96.0537 28.417L95.2351 27.2927L95.0797 27.4442C92.3018 30.1469 88.5953 32.5166 87.1476 32.5166C86.4578 32.5166 86.4578 32.1873 86.4578 32.0472C86.4578 31.7784 86.8406 31.1538 87.2347 30.5368C87.6744 29.8214 90.9677 25.2941 93.3705 21.9894C94.1133 20.9674 94.7728 20.0627 95.2351 19.4229H95.652C96.9898 19.4229 98.3731 19.4229 100.946 19.2034L101.068 19.192L101.496 18.0186H96.986L96.3759 17.9731V17.9693ZM41.2449 24.6922C41.6504 24.6922 41.8172 24.7868 41.9688 25.0102C41.6163 25.5288 41.4951 25.9149 41.4951 26.4789C41.4951 26.6454 41.5292 26.865 41.5784 27.1678C41.5974 27.2814 41.6163 27.4025 41.6353 27.535C39.8048 30.4611 37.2845 32.6604 35.7459 32.6604C35.1205 32.6604 34.9083 32.4484 34.9083 31.8239C34.9083 31.01 35.4692 29.723 36.4887 28.1975C37.3414 26.9937 39.8541 24.6922 41.2449 24.6922ZM47.555 2.13508C47.7635 2.13508 47.8052 2.30921 47.8052 2.45684C47.8052 4.85298 39.1567 13.0976 35.9353 16.0388C41.8399 7.30591 46.1528 2.13508 47.5512 2.13508H47.555ZM3.49045 67.0847C3.27443 67.0847 3.09252 67.0317 3.09252 66.3958C3.09252 65.5176 3.47529 64.276 5.33611 61.0735C8.38694 56.0995 13.1015 49.2858 15.6369 45.6254C16.0727 44.997 16.4328 44.4784 16.6981 44.0923L21.822 36.6729L20.6964 38.9934C20.3439 39.705 19.9952 40.4242 19.6428 41.1473C17.9184 44.6828 16.1372 48.3395 13.5866 52.8252C8.9213 61.1719 5.46496 67.0809 3.48666 67.0809L3.49045 67.0847ZM71.3856 32.1608C71.8821 32.1608 73.3677 32.5204 74.2015 32.7361C73.6216 32.9368 73.2047 33.0276 72.7045 33.0276C71.3439 33.0276 70.7678 32.6377 70.7678 32.4863C70.7678 32.3576 70.7679 32.1645 71.3856 32.1645V32.1608ZM73.921 28.5344C75.0807 27.7167 76.2139 26.8385 77.04 26.1193C76.843 30.0069 76.7407 30.6504 75.7894 31.5589C75.2967 31.5135 74.5084 31.3318 73.6785 31.1349C72.8864 30.9494 72.0223 30.7488 71.2681 30.6352C72.3634 29.8403 73.2919 29.0757 73.921 28.5344ZM69.07 25.0139C69.07 25.6196 67.8989 26.8082 64.651 28.2429C66.0646 26.2669 67.8572 24.6884 68.7441 24.6884C69.0397 24.6884 69.0662 24.7755 69.0662 25.0102L69.07 25.0139Z" fill="black"/>
</g>
<defs>
<clipPath id="clip0_304_570">
<rect width="102" height="69" fill="white"/>
</clipPath>
</defs>
</svg>
