<svg width="203" height="42" viewBox="0 0 203 42" fill="none" xmlns="http://www.w3.org/2000/svg">
<path d="M201.396 23.3529V25.13H189.051C189.003 28.4517 192.171 29.8368 194.844 28.0962C195.099 27.929 195.404 27.2024 195.524 27.2024H201.096C199.01 35.6777 184.726 34.3501 183.4 26.0944C181.694 15.4683 194.918 11.6945 200.341 19.7987L201.396 23.3529ZM195.673 21.8711C195.609 18.2542 189.519 18.1731 189.349 21.8711H195.673Z" fill="#02112D"/>
<path d="M57.747 10.6152V15.9466H50.5198V32.8318H44.196V15.9466H36.9688V10.6152H57.747Z" fill="#02112D"/>
<path d="M86.9587 15.9468V26.4631C86.9587 28.627 92.6793 28.627 92.6793 26.4631V15.9468H98.7029V26.7584C98.7029 27.8613 97.7145 30.0774 96.8669 30.8772C94.138 33.4514 86.4804 33.4906 83.4965 31.3476C82.8057 30.851 81.2354 29.0373 81.2354 28.2376V15.9468H86.956H86.9587Z" fill="#02112D"/>
<path d="M134.238 15.9468V25.8699C134.238 25.9457 134.751 27.1766 134.828 27.2863C136.044 29.0269 140.259 28.1984 140.259 25.5746V15.9468H145.979V27.0537C145.979 27.9946 144.818 30.3937 144.026 31.0575C141.223 33.4069 133.722 33.4644 130.773 31.3476C130.082 30.851 128.512 29.0373 128.512 28.2376V15.9468H134.232H134.238Z" fill="#02112D"/>
<path d="M122.495 15.9468L114.967 27.5006H121.892V32.2387H105.33L112.557 20.6875H106.233V15.9468H122.495Z" fill="#02112D"/>
<path d="M67.126 19.8404V21.236C70.0036 22.2134 73.7952 22.0801 74.2814 25.8957C75.2247 33.2733 64.7479 34.5539 60.1777 30.8768L61.9659 26.907C62.2316 26.7137 66.2252 29.7138 68.1489 28.104C70.2799 26.319 64.8781 25.7179 63.9826 25.3625C61.3601 24.3224 60.8261 22.101 61.501 19.4928C62.6621 15.0056 70.349 14.7809 73.6995 16.686L71.7599 20.0312C70.3383 19.3595 68.6113 19.2524 67.126 19.843V19.8404Z" fill="#02112D"/>
<path d="M166.16 16.2448V20.9855C163.285 20.0839 158.386 19.5011 158.011 23.4839C157.519 28.6767 162.507 28.4415 166.16 27.2054V31.9461C159.903 34.1675 151.562 31.6874 151.682 24.098C151.802 16.4382 159.767 14.2142 166.16 16.2448Z" fill="#02112D"/>
<path d="M178.809 8.83838H173.088V32.832H178.809V8.83838Z" fill="#02112D"/>
<path d="M26.772 20.8524C27.9645 14.5747 23.6349 8.97195 18.6875 5.58472C14.751 2.88933 10.0266 1.16012 5.32336 0.273926L4.0283 6.61648C7.40066 7.25634 10.8178 8.36169 13.6236 10.3332C6.07467 11.6073 -0.582964 17.2189 1.01165 25.4018C2.02669 30.6118 6.56551 34.9077 11.071 37.4559C14.567 39.4338 18.44 40.7183 22.3879 41.5197L23.6805 35.1748C20.9268 34.6429 18.239 33.7591 15.7441 32.501L14.086 31.4572C19.7839 30.4399 25.643 26.7991 26.7729 20.8516L26.772 20.8524ZM18.0517 18.629C18.0517 18.9689 17.7929 19.8839 17.6602 20.239C16.4962 23.3535 12.8715 24.9739 9.70345 25.2938C9.49099 24.0437 9.61228 22.5169 10.1007 21.3323C11.3331 18.3402 14.9219 16.6782 18.0517 16.4982V18.629Z" fill="#02112D"/>
</svg>
