<svg width="134" height="20" viewBox="0 0 134 20" fill="none" xmlns="http://www.w3.org/2000/svg">
<path d="M134 12.036V13.5096H123.94C123.901 16.264 126.482 17.4125 128.66 15.9692C128.868 15.8305 129.117 15.2281 129.214 15.2281H133.755C132.055 22.2559 120.414 21.1551 119.334 14.3092C117.944 5.49789 128.721 2.36862 133.14 9.08874L134 12.036ZM129.336 10.8072C129.284 7.808 124.321 7.74082 124.182 10.8072H129.336Z" fill="white"/>
<path d="M16.9332 1.47362V5.89446H11.0434V19.896H5.88982V5.89446H0V1.47362H16.9332Z" fill="white"/>
<path d="M40.7394 5.89446V14.6148C40.7394 16.4091 45.4015 16.4091 45.4015 14.6148V5.89446H50.3104V14.8597C50.3104 15.7742 49.5049 17.6119 48.8141 18.275C46.5903 20.4096 40.3496 20.4421 37.9179 18.6651C37.3549 18.2533 36.0752 16.7494 36.0752 16.0863V5.89446H40.7373H40.7394Z" fill="white"/>
<path d="M79.2699 5.89446V14.1229C79.2699 14.1857 79.6878 15.2064 79.7506 15.2974C80.7424 16.7407 84.1766 16.0537 84.1766 13.878V5.89446H88.8387V15.1046C88.8387 15.8847 87.8924 17.8741 87.2472 18.4245C84.9627 20.3727 78.8498 20.4204 76.4463 18.6651C75.8833 18.2533 74.6035 16.7494 74.6035 16.0863V5.89446H79.2656H79.2699Z" fill="white"/>
<path d="M69.6993 5.89446L63.5648 15.4751H69.2077V19.4041H55.7109L61.6008 9.82555H56.4472V5.89446H69.6993Z" fill="white"/>
<path d="M24.577 9.12342V10.2806C26.9221 11.0911 30.0121 10.9806 30.4084 14.1445C31.1771 20.2622 22.639 21.3241 18.9146 18.275L20.3718 14.9832C20.5884 14.8228 23.8429 17.3107 25.4107 15.9757C27.1473 14.4956 22.7451 13.9972 22.0154 13.7025C19.8781 12.84 19.4429 10.9979 19.9929 8.83519C20.9392 5.11431 27.2036 4.92795 29.9342 6.50775L28.3534 9.28161C27.195 8.72467 25.7875 8.63582 24.577 9.12558V9.12342Z" fill="white"/>
<path d="M105.285 6.14151V10.0726C102.942 9.32496 98.9491 8.8417 98.6438 12.1443C98.2432 16.4503 102.308 16.2553 105.285 15.2303V19.1613C100.186 21.0034 93.3885 18.9468 93.4859 12.6536C93.5833 6.30188 100.075 4.45769 105.285 6.14151Z" fill="white"/>
<path d="M115.592 0H110.93V19.896H115.592V0Z" fill="white"/>
</svg>
