<svg width="166" height="35" viewBox="0 0 166 35" fill="none" xmlns="http://www.w3.org/2000/svg">
<path d="M21.1889 17.0651C22.1607 11.8592 18.6321 7.21299 14.5999 4.40407C11.3917 2.16887 7.54133 0.734896 3.70819 0L2.65271 5.25968C5.40119 5.79029 8.18616 6.70692 10.4729 8.34187C4.32051 9.39845 -1.10547 14.0519 0.194139 20.8378C1.0214 25.1583 4.72054 28.7207 8.39247 30.8338C11.2418 32.4741 14.3983 33.5393 17.6158 34.2039L18.6693 28.9422C16.425 28.5011 14.2344 27.7682 12.2011 26.7249L10.8497 25.8593C15.4935 25.0157 20.2687 21.9965 21.1895 17.0645L21.1889 17.0651ZM14.0818 15.2212C14.0818 15.5031 13.8709 16.2619 13.7627 16.5564C12.8141 19.1391 9.85992 20.4829 7.27796 20.7482C7.10481 19.7115 7.20366 18.4454 7.6017 17.4631C8.60609 14.9818 11.531 13.6035 14.0818 13.4543V15.2212Z" fill="white"/>
<path d="M166.008 19.0368V20.5105H155.947C155.908 23.265 158.489 24.4136 160.668 22.9703C160.876 22.8316 161.125 22.2291 161.222 22.2291H165.763C164.063 29.2573 152.421 28.1564 151.341 21.3102C149.951 12.4983 160.728 9.36884 165.148 16.0894L166.008 19.0368ZM161.343 17.808C161.291 14.8085 156.328 14.7414 156.189 17.808H161.343Z" fill="white"/>
<path d="M48.9343 8.47363V12.8947H43.0441V26.8971H37.8902V12.8947H32V8.47363H48.9343Z" fill="white"/>
<path d="M72.7417 12.895V21.6159C72.7417 23.4103 77.404 23.4103 77.404 21.6159V12.895H82.3132V21.8608C82.3132 22.7753 81.5077 24.6131 80.8169 25.2763C78.5929 27.411 72.3519 27.4435 69.9201 25.6664C69.357 25.2546 68.0772 23.7506 68.0772 23.0874V12.895H72.7395H72.7417Z" fill="white"/>
<path d="M111.275 12.895V21.1239C111.275 21.1868 111.692 22.2075 111.755 22.2986C112.747 23.7419 116.182 23.0549 116.182 20.879V12.895H120.844V22.1057C120.844 22.8859 119.898 24.8754 119.252 25.4258C116.968 27.3742 110.854 27.4218 108.451 25.6664C107.888 25.2546 106.608 23.7506 106.608 23.0874V12.895H111.27H111.275Z" fill="white"/>
<path d="M101.704 12.895L95.5688 22.4763H101.212V26.4054H87.7145L93.6047 16.8263H88.4508V12.895H101.704Z" fill="white"/>
<path d="M56.5783 16.1237V17.281C58.9236 18.0915 62.0137 17.981 62.41 21.1451C63.1788 27.2631 54.6402 28.3251 50.9155 25.2758L52.3729 21.9838C52.5895 21.8234 55.8442 24.3114 57.412 22.9764C59.1488 21.4962 54.7463 20.9977 54.0165 20.703C51.8792 19.8404 51.4439 17.9983 51.994 15.8354C52.9403 12.1143 59.2051 11.9279 61.9358 13.5078L60.355 16.2819C59.1964 15.7249 57.7888 15.636 56.5783 16.1258V16.1237Z" fill="white"/>
<path d="M137.291 13.1418V17.0732C134.948 16.3255 130.955 15.8422 130.65 19.145C130.249 23.4513 134.314 23.2562 137.291 22.2311V26.1624C132.192 28.0046 125.394 25.9479 125.492 19.6543C125.589 13.3022 132.081 11.4579 137.291 13.1418Z" fill="white"/>
<path d="M147.599 7H142.937V26.8972H147.599V7Z" fill="white"/>
</svg>
