<svg width="118" height="38" viewBox="0 0 118 38" fill="none" xmlns="http://www.w3.org/2000/svg">
<path d="M45.9032 6.48927C44.9859 6.21035 44.4591 0.154803 46.2565 0.0804258L72.4869 -0.00634766C73.398 -0.00634766 74.4517 0.235378 74.4083 1.31385V29.3231C74.4517 30.4078 73.398 30.6433 72.4869 30.6433C62.4832 29.8003 50.713 31.7341 40.92 30.5999C36.2156 30.0545 34.5297 27.3211 34.2322 22.8399C33.9037 17.8504 34.9822 12.5758 40.8766 12.0676C48.9775 11.3734 58.0081 12.6626 66.2082 12.0118C68.6503 11.4478 67.671 6.48307 65.9789 6.48307H45.9032V6.48927ZM42.7174 18.6252C40.3249 19.1458 40.2692 23.782 42.674 24.1415H65.6628C68.3156 23.7076 68.3404 18.6561 65.3591 18.5942L42.7174 18.6314V18.6252Z" fill="white"/>
<path d="M77.5444 7.43155L110.556 7.35718C116.698 7.92121 117.535 12.9107 117.2 18.1295C116.927 22.4 115.024 25.3937 110.506 25.8833C102.709 26.7263 93.5728 25.1891 85.7322 25.9081C84.0649 26.0631 83.7116 26.4411 83.5318 28.1332C83.3335 30.0299 83.9595 35.9366 83.3831 37.1143C83.2095 37.4738 82.8624 37.6225 82.4905 37.6907C81.536 37.8705 77.2841 37.9262 76.8875 37.1143V7.96459L77.5382 7.43775L77.5444 7.43155ZM83.9099 14.5222C83.2281 15.3651 83.3025 18.9414 84.8706 19.146L109.682 18.8795C110.512 18.0551 110.512 16.8899 110.37 15.7928C110.146 14.0945 109.483 14.0201 107.884 13.8528C100.924 13.14 92.829 14.3858 85.7445 13.8404C85.3169 13.89 84.1454 14.2309 83.9099 14.516V14.5222Z" fill="white"/>
<path d="M0.440066 3.54517H42.0604L42.5004 3.98523V9.28461C42.5004 9.6565 41.5769 9.985 41.1864 10.0346C36.7796 10.6296 30.786 9.35899 26.4287 10.0346C25.0094 10.2577 24.5941 11.2184 24.4763 12.5076C23.9185 18.7491 25.3007 26.5339 24.5011 32.5585C24.4453 32.9676 24.4329 33.3209 24.0734 33.606C23.5032 34.0522 17.9869 34.3869 17.7638 32.7816L17.4291 10.7412C17.3299 10.6048 16.4436 10.0284 16.3754 10.0284H0.440066L0 9.58832V3.99143L0.440066 3.55136V3.54517Z" fill="white"/>
</svg>
