<svg width="141" height="45" viewBox="0 0 141 45" fill="none" xmlns="http://www.w3.org/2000/svg">
<path d="M57.1294 11.464V32.7825C57.1294 35.1394 59.7273 37.2417 62.0138 37.3156C64.038 37.3813 69.2584 34.7616 69.2584 32.7825V11.464H77.0849V42.752H70.8237C70.1271 33.9897 68.316 39.4097 64.8576 41.6762C61.1287 44.1152 54.4987 44.4601 51.7205 40.5347C50.9911 39.5082 49.3111 35.4679 49.3111 34.3428V11.464H57.1376H57.1294Z" fill="white"/>
<path d="M5.47445 10.2897L5.86783 12.6384C8.08875 11.9239 9.50654 10.2569 11.9651 9.93658C27.3805 7.9082 26.3397 35.936 12.3175 35.3529C9.80976 35.2462 8.76896 33.8255 6.65458 32.9797L7.03976 43.9263H0V10.2897H5.47445ZM10.0638 15.4633C9.2197 15.644 7.36757 16.7526 7.12171 17.6067C6.87585 18.4607 6.84307 26.6481 7.04795 27.6829C7.38396 29.432 10.3097 30.0726 11.9078 29.818C17.2757 28.9722 18.2263 13.747 10.0638 15.4551V15.4633Z" fill="white"/>
<path d="M105.121 41.0521C103.711 42.5385 98.5402 44.148 96.4504 44.3123C92.0004 44.6654 86.9521 43.1626 83.3461 40.5922L86.6734 36.1988C89.5664 38.9909 99.2286 41.5941 100.007 35.7307C100.581 31.4193 92.5658 30.0972 89.8778 28.6026C85.3622 26.1061 83.1822 21.9098 85.5097 16.9415C88.8124 9.88729 101.048 10.4046 106.424 14.8392L103.507 19.2737C100.991 16.5719 91.7791 14.9295 91.5906 20.3002C91.4349 24.7593 102.671 25.8023 105.605 29.317C108.375 32.6429 108.096 37.9233 105.137 41.0521H105.121Z" fill="white"/>
<path d="M36.7805 10.2897V37.4716C36.7805 39.2619 39.0588 39.5903 39.3374 40.0009C39.5505 40.313 40.0832 44.5422 39.9111 44.7065C36.5428 45.3634 32.2075 45.1745 30.8881 41.4134C30.7323 40.97 30.1341 38.531 30.1341 38.26V10.2897H36.7887H36.7805Z" fill="white"/>
<path d="M141 12.6466V15.2662C141 17.4588 139.156 21.1625 137.738 22.8542C127.929 34.5235 109.284 24.9154 113.21 9.89553C113.357 9.33711 114.16 6.59427 114.841 6.70103C114.996 6.72567 116.947 7.99033 116.93 8.1792C116.898 8.5159 116.209 9.82162 116.045 10.38C114.537 15.5536 116.406 20.8586 121.11 23.5768C129.141 28.2249 138.55 22.0248 138.189 12.9915L141 12.6384V12.6466Z" fill="white"/>
<path d="M129.248 2.89065L129.789 0C130.223 0.0903328 132.461 0.640541 132.485 0.993661L131.42 3.35874L129.24 2.89065H129.248Z" fill="white"/>
<path d="M135.329 2.53748L137.189 4.40162L135.149 6.12615L133.624 4.79579L135.329 2.53748Z" fill="white"/>
<path d="M139.369 7.05422L140.279 9.57533L137.558 10.2241C137.427 9.73957 136.665 8.71306 136.919 8.31067C136.993 8.18749 139.205 6.93925 139.361 7.05422H139.369Z" fill="white"/>
</svg>
