<svg width="190" height="34" viewBox="0 0 190 34" fill="none" xmlns="http://www.w3.org/2000/svg">
<g clip-path="url(#clip0_304_462)">
<path d="M126.17 0.530029L128.93 0.630029L147.12 26.66V0.530029H149.98V32.36L146.89 31.88L129.02 6.23003V32.36H126.17V0.530029Z" fill="white"/>
<path d="M186.65 21.9101H179.98V19.0601H189.51V26.4201C189.51 26.6201 187.07 28.8701 186.61 29.2301C172.95 39.9501 154.06 25.3001 161.23 9.61011C165.23 0.860106 176.2 -2.57989 184.61 2.34011C186.6 3.51011 192.51 7.71011 187.9 9.06011C181.38 -0.669893 166.34 1.32011 163.07 12.8701C159.9 24.0801 171.31 33.6201 182.08 28.9801C185.19 27.6401 187.44 25.5301 186.66 21.9101H186.65Z" fill="white"/>
<path d="M76.4 0.530015C78.35 0.850015 81.97 3.63001 83.05 5.30001C87.06 11.51 83.53 20.24 76.17 21.44L84.74 32.13C83.67 32.65 82.16 32.5 81.14 31.92C78.17 30.22 73.88 22.27 70.93 19.77C70.73 18.7 71.4 19.11 72.11 19.06C75.83 18.81 77.85 19.45 80.45 15.97C82.62 13.07 82.55 7.76002 79.75 5.28001C79.42 4.99002 76.6 3.39001 76.41 3.39001H66.65V32.37H64.27V0.530015C67.96 0.960015 72.89 -0.0499854 76.41 0.530015H76.4Z" fill="white"/>
<path d="M34.25 21.91V32.36H31.39V0.530029H44.01C45.37 0.530029 49.52 3.84003 50.36 5.12003C52.69 8.66003 52.57 15.26 49.5 18.36C48.4 19.47 44.01 21.91 42.58 21.91H34.25ZM34.25 19.06H43.54C46.37 19.06 49.53 13.9 49.53 11.22C49.53 8.40003 46.58 3.38003 43.54 3.38003H34.25V19.06Z" fill="white"/>
<path d="M0 26.7201L2.07 25.7201C5.02 32.0701 16.12 31.6801 15.21 23.5601C14.72 19.1301 9.33 18.5601 6.2 16.8601C-5.66 10.4401 4.25 -4.61989 14.58 1.38011C16.43 2.45011 20.04 6.67011 15.94 7.17011C13.44 0.670114 3.21 1.67011 3.74 9.32011C4.26 16.8501 17.34 14.1601 18.07 24.0601C18.8 33.9601 2.97 35.9701 0 26.7201Z" fill="white"/>
<path d="M110.93 1.01001V3.39001H104.26C104 4.77001 104.66 4.15001 105.31 4.46001C106.1 4.84001 110.69 7.00001 110.85 7.26001C111.2 7.82001 110.8 9.28001 110.93 10.04H104.26L108.19 12.53L110.92 12.89V15.74H104.25L110.45 19.3L110.92 22.4H104.25L108.67 24.88L110.89 25.27L110.91 27.63C110.65 27.89 105.64 27.37 104.56 27.63C104.2 27.72 104.23 28.42 104.14 28.46C103.54 28.76 101.21 27.04 99.95 27.62V25.25H107.09C106.31 24.15 104.37 23.27 103.15 22.77C101.08 21.92 99.46 23.11 99.95 19.55H108.52C106.33 17.17 103.15 16.11 100.15 15.31L99.99 13.66L100.74 12.97L107.1 12.66C104.92 11.34 102.68 9.62001 99.95 10.05V7.67001H109C106.96 5.48001 102.99 3.48001 99.95 3.39001V1.01001H110.9H110.93Z" fill="white"/>
<path d="M99.97 33.3099V30.4599C103.65 30.6499 107.28 30.0499 110.93 30.4599V33.3099H99.97Z" fill="white"/>
</g>
<defs>
<clipPath id="clip0_304_462">
<rect width="189.61" height="33.31" fill="white"/>
</clipPath>
</defs>
</svg>
