<svg width="141" height="45" viewBox="0 0 141 45" fill="none" xmlns="http://www.w3.org/2000/svg">
<path d="M57.1294 11.4641V32.7826C57.1294 35.1395 59.7273 37.2418 62.0138 37.3157C64.038 37.3814 69.2584 34.7618 69.2584 32.7826V11.4641H77.0849V42.7521H70.8237C70.1271 33.9898 68.3159 39.4098 64.8575 41.6763C61.1287 44.1153 54.4987 44.4602 51.7205 40.5348C50.9911 39.5083 49.3111 35.468 49.3111 34.3429V11.4641H57.1376H57.1294Z" fill="white"/>
<path d="M5.47445 10.2897L5.86783 12.6384C8.08875 11.9239 9.50654 10.2569 11.9651 9.93658C27.3805 7.9082 26.3397 35.936 12.3175 35.3529C9.80976 35.2462 8.76896 33.8255 6.65458 32.9797L7.03976 43.9263H0V10.2897H5.47445ZM10.0638 15.4633C9.2197 15.644 7.36757 16.7526 7.12171 17.6067C6.87585 18.4607 6.84307 26.6481 7.04795 27.6829C7.38396 29.432 10.3097 30.0726 11.9078 29.818C17.2757 28.9722 18.2263 13.747 10.0638 15.4551V15.4633Z" fill="white"/>
<path d="M105.121 41.0522C103.711 42.5386 98.5402 44.1482 96.4504 44.3124C92.0003 44.6655 86.952 43.1627 83.3461 40.5923L86.6734 36.1989C89.5663 38.991 99.2286 41.5942 100.007 35.7308C100.581 31.4195 92.5658 30.0973 89.8778 28.6027C85.3622 26.1062 83.1822 21.9099 85.5097 16.9416C88.8124 9.88741 101.048 10.4048 106.424 14.8393L103.507 19.2738C100.991 16.572 91.7791 14.9296 91.5906 20.3003C91.4349 24.7595 102.671 25.8024 105.605 29.3172C108.375 32.6431 108.096 37.9234 105.137 41.0522H105.121Z" fill="white"/>
<path d="M36.7805 10.2898V37.4717C36.7805 39.262 39.0588 39.5905 39.3374 40.0011C39.5505 40.3131 40.0832 44.5423 39.9111 44.7066C36.5428 45.3635 32.2075 45.1747 30.8881 41.4135C30.7323 40.9701 30.1341 38.5311 30.1341 38.2601V10.2898H36.7887H36.7805Z" fill="white"/>
<path d="M141 12.6466V15.2662C141 17.4588 139.156 21.1625 137.738 22.8542C127.929 34.5235 109.284 24.9154 113.21 9.89553C113.357 9.33711 114.16 6.59427 114.841 6.70103C114.996 6.72567 116.947 7.99033 116.93 8.1792C116.898 8.5159 116.209 9.82162 116.045 10.38C114.537 15.5536 116.406 20.8586 121.11 23.5768C129.141 28.2249 138.55 22.0248 138.189 12.9915L141 12.6384V12.6466Z" fill="white"/>
<path d="M129.248 2.89065L129.789 0C130.223 0.0903328 132.461 0.640541 132.485 0.993661L131.42 3.35874L129.24 2.89065H129.248Z" fill="white"/>
<path d="M135.329 2.5376L137.189 4.40174L135.149 6.12627L133.624 4.79592L135.329 2.5376Z" fill="white"/>
<path d="M139.369 7.0541L140.279 9.57521L137.558 10.224C137.427 9.73945 136.665 8.71294 136.919 8.31055C136.993 8.18737 139.205 6.93913 139.361 7.0541H139.369Z" fill="white"/>
</svg>
