<svg width="118" height="38" viewBox="0 0 118 38" fill="none" xmlns="http://www.w3.org/2000/svg">
<g clip-path="url(#clip0_304_376)">
<path d="M46.3883 6.58131C45.471 6.30239 44.9441 0.246844 46.7416 0.172467L72.972 0.0856934C73.8831 0.0856934 74.9368 0.327419 74.8934 1.40589V29.4151C74.9368 30.4998 73.8831 30.7353 72.972 30.7353C62.9682 29.8924 51.198 31.8262 41.405 30.6919C36.7006 30.1465 35.0148 27.4131 34.7173 22.9319C34.3888 17.9424 35.4672 12.6678 41.3616 12.1596C49.4625 11.4654 58.4932 12.7546 66.6933 12.1038C69.1353 11.5398 68.156 6.57511 66.4639 6.57511H46.3883V6.58131ZM43.2025 18.7172C40.81 19.2378 40.7542 23.874 43.1591 24.2335H66.1479C68.8006 23.7996 68.8254 18.7482 65.8441 18.6862L43.2025 18.7234V18.7172Z" fill="white"/>
<path d="M78.0296 7.5236L111.041 7.44922C117.183 8.01325 118.02 13.0027 117.685 18.2215C117.412 22.492 115.51 25.4857 110.991 25.9754C103.194 26.8183 94.0579 25.2812 86.2173 26.0002C84.55 26.1551 84.1967 26.5332 84.017 28.2253C83.8187 30.1219 84.4447 36.0287 83.8682 37.2063C83.6947 37.5658 83.3476 37.7146 82.9757 37.7828C82.0212 37.9625 77.7693 38.0183 77.3726 37.2063V8.05663L78.0234 7.52979L78.0296 7.5236ZM84.3951 14.6142C83.7133 15.4572 83.7877 19.0335 85.3558 19.238L110.167 18.9715C110.997 18.1472 110.997 16.9819 110.855 15.8848C110.632 14.1866 109.968 14.1122 108.369 13.9448C101.409 13.2321 93.3141 14.4779 86.2297 13.9324C85.802 13.982 84.6306 14.3229 84.3951 14.608V14.6142Z" fill="white"/>
<path d="M0.925173 3.63721H42.5455L42.9855 4.07727V9.37665C42.9855 9.74854 42.062 10.077 41.6715 10.1266C37.2647 10.7216 31.2711 9.45103 26.9138 10.1266C25.4945 10.3498 25.0792 11.3105 24.9614 12.5997C24.4036 18.8412 25.7858 26.626 24.9862 32.6505C24.9304 33.0596 24.918 33.4129 24.5586 33.698C23.9883 34.1443 18.472 34.479 18.2489 32.8737L17.9142 10.8332C17.815 10.6969 16.9287 10.1204 16.8605 10.1204H0.925173L0.485107 9.68036V4.08347L0.925173 3.64341V3.63721Z" fill="white"/>
</g>
<defs>
<clipPath id="clip0_304_376">
<rect x="0.485107" y="0.092041" width="117.268" height="37.8022" rx="15" fill="white"/>
</clipPath>
</defs>
</svg>
